<?xml version="1.0" standalone="no"?><!DOCTYPE svg PUBLIC "-//W3C//DTD SVG 1.1//EN" "http://www.w3.org/Graphics/SVG/1.1/DTD/svg11.dtd"><svg t="1780660261544" class="icon" viewBox="0 0 1024 1024" version="1.1" xmlns="http://www.w3.org/2000/svg" p-id="5096" xmlns:xlink="http://www.w3.org/1999/xlink" width="200" height="200"><path d="M668.452571 146.285714a76.068571 76.068571 0 0 1 76.507429 75.702857v457.142858a27.062857 27.062857 0 0 0 27.209143 25.965714 27.062857 27.062857 0 0 0 27.209143-25.892572V405.942857a75.337143 75.337143 0 0 1 75.702857-74.971428A75.337143 75.337143 0 0 1 950.857143 405.942857v239.908572a23.698286 23.698286 0 0 1-32.914286 21.942857 23.698286 23.698286 0 0 1-14.848-21.942857V405.942857a27.940571 27.940571 0 0 0-38.619428-25.6 27.867429 27.867429 0 0 0-17.408 25.6v273.261714a74.605714 74.605714 0 0 1-74.898286 74.093715 74.605714 74.605714 0 0 1-74.898286-74.093715v-457.142857a28.672 28.672 0 0 0-28.745143-27.574857 28.672 28.672 0 0 0-28.891428 27.574857v581.632A74.532571 74.532571 0 0 1 564.662857 877.714286a74.605714 74.605714 0 0 1-74.898286-74.093715v-70.729142c0-13.019429 10.678857-23.552 23.771429-23.552 13.165714 0 23.844571 10.532571 23.844571 23.552v70.729142c0 9.581714 5.266286 18.505143 13.677715 23.332572a27.574857 27.574857 0 0 0 37.156571-9.801143 26.843429 26.843429 0 0 0 3.657143-13.531429V221.988571A76.068571 76.068571 0 0 1 668.379429 146.285714zM460.946286 146.285714a76.068571 76.068571 0 0 1 76.507428 75.702857v421.376a23.698286 23.698286 0 0 1-32.914285 21.942858 23.698286 23.698286 0 0 1-14.701715-21.942858V221.988571a28.672 28.672 0 0 0-28.891428-28.525714 28.672 28.672 0 0 0-28.818286 28.525714v512.438858a75.337143 75.337143 0 0 1-75.776 74.898285 75.337143 75.337143 0 0 1-75.702857-74.898285V405.942857a27.794286 27.794286 0 0 0-38.692572-25.6 27.867429 27.867429 0 0 0-17.334857 25.6v138.971429a75.337143 75.337143 0 0 1-75.776 74.971428A75.337143 75.337143 0 0 1 73.142857 544.914286v-50.395429c0-13.092571 10.678857-23.625143 23.844572-23.625143 13.165714 0 23.917714 10.605714 23.917714 23.625143v50.395429a27.794286 27.794286 0 0 0 27.940571 27.648 27.794286 27.794286 0 0 0 28.013715-27.648v-138.971429a75.337143 75.337143 0 0 1 75.702857-74.898286A75.337143 75.337143 0 0 1 328.411429 405.942857v328.484572c0 15.36 12.507429 27.794286 28.013714 27.794285a27.794286 27.794286 0 0 0 28.013714-27.794285V221.988571A76.068571 76.068571 0 0 1 460.946286 146.285714z" fill="#E2167E" p-id="5097"></path></svg>