<?xml version="1.0" standalone="no"?><!DOCTYPE svg PUBLIC "-//W3C//DTD SVG 1.1//EN" "http://www.w3.org/Graphics/SVG/1.1/DTD/svg11.dtd"><svg t="1780659736150" class="icon" viewBox="0 0 1024 1024" version="1.1" xmlns="http://www.w3.org/2000/svg" p-id="10248" xmlns:xlink="http://www.w3.org/1999/xlink" width="200" height="200"><path d="M512 1024c-283.306667 0-512-228.693333-512-512S228.693333 0 512 0s512 228.693333 512 512-228.693333 512-512 512zM238.933333 331.093333v167.253334c0 37.546667 6.826667 71.68 23.893334 105.813333 20.48 47.786667 58.026667 88.746667 102.4 119.466667 47.786667 30.72 105.813333 47.786667 163.84 47.786666 78.506667 0 160.426667-34.133333 215.04-92.16 47.786667-47.786667 75.093333-112.64 75.093333-177.493333V409.6h-112.64v85.333333c0 37.546667-10.24 75.093333-34.133333 105.813334-30.72 44.373333-85.333333 68.266667-136.533334 71.68-44.373333 0-92.16-13.653333-126.293333-44.373334-37.546667-30.72-58.026667-81.92-61.44-129.706666V423.253333c0-6.826667 6.826667-13.653333 13.653333-13.653333h344.746667V310.613333h-443.733333c-10.24-3.413333-23.893333 6.826667-23.893334 20.48z" fill="#FC9152" p-id="10249"></path></svg>