<?xml version="1.0" standalone="no"?><!DOCTYPE svg PUBLIC "-//W3C//DTD SVG 1.1//EN" "http://www.w3.org/Graphics/SVG/1.1/DTD/svg11.dtd"><svg t="1780659755034" class="icon" viewBox="0 0 2151 1024" version="1.1" xmlns="http://www.w3.org/2000/svg" p-id="11439" xmlns:xlink="http://www.w3.org/1999/xlink" width="420.1171875" height="200"><path d="M1902.463382 119.960706c24.024245 8.025917 44.035531 72.019229 44.035532 111.988296 4.012959 8.025917 12.038876 16.051834 12.038875 32.103668 0 27.983697-24.024245 64.207336-44.089037 68.00627 0 0-140.132511 23.970739-144.14547 23.970739l-116.161772-11.985369-72.072735 16.051834-68.113283 3.745428 16.051834 8.025917-8.025917 8.025917 24.024245 4.012958-44.035531 4.012959c7.972411 27.983697 11.985369 7.972411 44.035531 7.972411h64.207337v12.038875h80.25917l-16.051834 3.959453-12.2529 60.033859 24.024245-43.875013c28.037203 0 28.037203 12.038876 52.061448 12.038875s16.051834-12.038876 68.059777-4.012958c28.037203 0 48.155502-8.025917 80.25917-8.025917 60.087365 0 104.176403-7.972411 128.414672-39.969067-36.06312-11.985369-8.025917-39.969067-64.207336-55.967395l12.038876-4.012958c0-36.009614 11.985369-27.983697 11.985369-52.007942v-12.145888c0-16.051834-4.012959-20.011286-7.972411-32.103668l7.972411-16.051834h20.011286v-16.051834h-11.985369v-35.79559h11.985369v-51.954436c40.076079 7.972411 20.064793 43.982025 20.064793 75.978681 0 4.012959 20.011286 23.970739 28.037203 27.983697-4.280489-23.970739-20.332323-107.975337-36.384157-119.960706V80.25917c-24.024245-4.012959-44.035531-36.009614-60.087365-36.009614H1926.273603V48.155502l-32.103668 23.970739c4.012959 16.051834 0 16.051834 24.024245 16.051834v8.025917l-20.011287 7.972411zM752.991546 428.048908h-16.051834v24.024245h16.051834l88.124569 4.012958v-4.012958h32.103668l-4.012958 20.011286 40.022573-8.025917v8.025917h12.038875l-8.025917 51.954437 8.025917 87.96405 4.012959 95.989968 11.985369-32.103668h8.025917v64.207336l-16.051834-4.012959v107.707807h16.051834v24.024245l16.051834-20.011287 11.98537-4.012958c16.051834 0 12.038876 0 16.051834-7.972411l-20.064793 4.012958v-16.051834h8.025917v-59.926847h8.025917v23.970739h7.972411l-3.959452-71.965723v-131.999582l-12.038876-163.942731h-20.064792V331.737904h20.011286V267.530567l24.024245 3.959453v-23.54269l-48.155502-23.970739-12.038876-20.011286-4.012958-20.011287c0-11.985369 0-11.985369 4.012958-16.051834h-16.051834v16.051834l-4.012958 4.012959-20.011287-32.103668 7.972411-8.025917-24.024245 4.012958-3.959452-4.012958 40.022573-7.972411-40.022573-16.051834h-208.138782v4.012958H700.983604v11.98537h-36.06312l3.959452 20.171804 16.051834 3.959453V151.957362h28.037203l7.972411 20.011287-7.972411 4.012958c32.103668 3.959452 80.25917 11.985369 104.122897 7.972411l44.035532-7.972411-11.98537-8.025917c16.051834-4.012959 11.985369-4.012959 24.024245-4.012958 16.051834 0 8.025917 12.038876 4.012959 20.011286 28.037203 0 60.033859 40.022573 64.207336 64.207336h-11.985369v75.978682l7.97241-16.051835h8.025917V331.737904h-8.025917v124.187689h-11.985369c0-40.022573-28.037203-28.037203-76.085693-28.037203z" fill="#E54200" p-id="11440"></path><path d="M692.904181 587.871669l12.038875-4.012959 8.025917-27.983697h7.972411v32.103668h24.077751v11.98537l32.103669 4.012958H765.19094l4.012959 27.983697-52.061449 4.012959 16.051834-4.012959v-20.011286l-36.06312-7.972411zM560.744081 444.100742c12.038876 8.025917 20.064793 16.051834 40.076079 16.051834h24.024245v16.051834h-32.103669c-11.985369 0-11.985369 8.025917-20.011286 16.051834 4.012959 4.012959 11.985369 11.985369 16.051834 11.98537 12.038876 0 8.025917 0 24.024245-7.972411l-24.184763-4.387502v-7.972411h64.207336c20.011286 0 8.025917 7.972411 28.037203 7.972411l28.037204 4.012959-12.038876 23.970739-16.051834-3.959453v55.967395l-12.038875 8.025917-84.111611 7.972411v27.983697H572.568932v11.98537l11.985369 8.025917 8.025917 16.051834H813.346442l60.087366-20.011287-8.025917-23.970739-8.025917-4.012958 4.012958-20.011286-96.311004-11.98537c-4.012959-7.972411-12.038876-7.972411-12.038876-20.011286V495.89466l80.259171-8.025917c48.155502-7.972411 60.087365 24.024245 80.25917 36.009614l8.025917-51.954436h-12.038876v-8.025917l-40.022572 8.025917 4.012958-20.011286h-32.103668v4.012958l-88.124569-4.012958h-16.051834V428.048908h16.051834l-48.155502-3.959452v11.985369h-120.388755V444.100742z" fill="#E54200" p-id="11441"></path><path d="M668.879936 119.960706l-124.134183 11.98537c-80.25917 0-20.011286-16.051834-84.111611 24.024245v7.972411l-4.012958 20.011286 32.103668-23.970739 48.155502 3.959453-7.972411-16.051834 72.072735 4.012958v11.98537l24.024245-3.959453-40.076079 43.982026-48.155502 16.051834c-7.972411-27.983697-16.051834-4.012959-20.011287 20.011286l-12.092381-12.038876v16.051835h8.025917v107.92183l-20.011287 8.025917-4.012958 59.980354h16.051834c20.064793 0 24.077751-4.012959 36.06312-11.98537l-16.051834-95.989967 11.98537-64.207337a77.797889 77.797889 0 0 1 67.952764-35.795589c44.035531-3.959452 48.155502-23.970739 84.11161-23.970739 60.033859 0 144.14547-4.012959 180.20859 20.011286 32.103668 19.95778 88.124569 91.977009 52.061449 147.944404v48.155502c-8.025917 7.972411-8.025917 16.051834-24.024245 16.051834-32.103668 0-72.072735 0-72.072735-27.983697v-16.051834L797.294608 411.997074l-4.012958-19.95778-24.024245 16.051834v-32.103668l-8.025917 16.051834c-16.051834 27.983697-16.051834 27.983697-60.087366 27.983697-8.025917 4.012959-8.025917 7.972411-20.011286 7.972411H588.620766c-20.011286 0-24.024245-7.972411-36.009615-16.051834l7.972411 32.103668h24.024245v-8.132929h120.174731v-11.98537l48.155502 3.959453h96.311005c48.155502 0 76.085693-11.985369 76.085693 28.037203h11.985369V331.737904h8.025917v-23.810221h-8.025917l-7.972411 16.051834V247.94733h11.98537c-4.012959-23.970739-36.009614-64.207336-64.207336-64.207336 4.012959-7.972411 11.985369-20.011286-4.012959-20.011287-12.038876 0-8.025917 0-24.024245 4.012959l11.98537 8.025917-44.035532 7.972411c-24.024245 4.012959-72.072735-4.012959-104.122897-7.972411l7.972411-4.012959-7.972411-20.011286H684.93177v11.985369l-16.051834-3.959452-4.012959-20.011287H700.983604v-11.771345h-28.037203v-4.012958h224.297627c-28.037203-20.011286-96.311004-16.051834-144.198976-11.985369zM72.126252 519.865399c-36.009614 52.007942-20.011286 111.988296 8.025917 159.983279l12.038876 4.012959 112.362838 32.103668c132.213606-27.983697 76.139199-24.024245 164.210262-84.004599l12.038876-32.103668c-8.025917-7.972411-8.025917-11.985369-28.037204-11.985369h-8.025917c-28.037203 0-32.103668 20.011286-32.103668-23.970739l-7.972411 32.103668c-36.06312 23.970739-44.089038 27.983697-104.122896 32.103668l-8.025917-11.985369h-32.103669l-8.025917-4.012959h-16.051834l-12.038875-11.985369v-48.155502L112.416356 547.902602l11.985369-24.024245-3.959452-16.051834H96.364522l8.025917 16.051834h-12.199394v-7.972411zM2006.532773 835.818999l-32.103668 16.051834-108.135855 48.155502h-11.98537l-72.126241-4.012958-44.035531 16.051834v-27.983698h-12.038876l-3.959452 36.009615c11.985369-4.012959 60.033859 19.95778 60.033859 39.969066v32.103668h24.024245v20.011287h44.089038v-44.035531h32.103668v-11.98537l48.155502 16.051834-44.089037 16.051834 16.051834 4.012959 28.037203 4.012958 124.134183-84.004598-16.051834-20.011286 16.051834-35.956109 8.025917-8.025917-32.103668-4.012958-4.012958-11.98537z" fill="#E54200" p-id="11442"></path><path d="M456.621184 183.954018c-28.037203 32.103668-24.024245 103.962379-8.025917 143.984952h12.038875v-16.051834c28.037203 7.972411 12.038876 11.985369 12.038876 43.982025h7.972411v128.040129c0 23.970739 12.038876 27.983697 12.038875 48.155503l28.037204 7.97241v8.025917l32.103668-12.038875-8.025917-19.95778H556.517098l-3.959453-24.024245H572.568932c8.025917-7.972411 8.025917-16.051834 20.011286-16.051834h32.103668V460.152576h-24.024245c-20.011286 0-28.037203-7.972411-40.076079-16.051834l-7.972411-32.103668-12.038875-3.959453c-11.985369 7.972411-16.051834 11.985369-36.063121 11.98537h-16.051834l4.012959-59.980353 20.011286-8.025917v-108.08235h-8.025917v-16.051834l12.038876 12.038876c4.012959-24.024245 12.038876-48.155502 20.011286-20.011287l48.155502-16.051834 40.076079-43.982025-24.024245 3.959453V151.957362l-72.072735-4.012958 7.972411 16.051834-48.155502-3.959453zM1710.215917 16.051834h140.186017v7.918905l-72.126241 4.012958 4.012959 4.012959h96.311004v11.985369h7.972411V64.207336h-7.972411v23.970739l-80.25917-7.972411h-76.085694V64.207336h-28.037203V43.982025h-84.111611c4.012959-7.972411 4.012959-16.051834 20.011287-16.051834l120.121225 8.025917V23.970739h-40.022573z m-164.210263 95.936462c56.074407-24.024245 92.137527-32.103668 172.23618-20.011287 60.033859 8.025917 152.171387-16.051834 180.20859 27.983697h4.012958l-4.012958-16.051834 20.011286-7.972411v-8.025917c-24.024245 0-20.011286 0-24.024245-16.051834L1926.273603 48.155502v-4.173477h20.011286c16.051834 0 36.06312 32.103668 60.087366 36.009615-32.103668-43.982025-88.124569-52.007942-152.171387-68.006271-8.025917 0-172.236179-11.985369-196.260424-11.985369h-28.037204c-32.103668 0-160.197304 23.970739-160.197303 59.980353V80.25917c0 32.103668 44.035531 32.103668 76.085693 32.103668zM1742.266079 531.904274l-8.025917 7.972411v11.98537h8.025917v12.038875l-16.051834-8.025917 20.064792 27.983697 36.009615-27.983697 8.025917 8.025917 24.024245-16.051834c12.038876-8.025917 24.024245-12.038876 48.155502-12.038875h24.024245c24.077751 0 32.103668 52.007942 40.076079 75.978681l48.155502-11.98537-40.022573-3.959452 4.012958-24.024245 11.98537 16.051834v-52.007942c0-16.051834 4.012959-16.051834 8.025917-27.983698h20.011286l4.012959 36.009615 11.985369 16.051834 48.155502-8.025917v16.051834l4.012959-19.957781H2022.584607l-11.985369-28.037203h-16.051834v-12.092382h20.064792l-4.012958-16.051834c-60.087365-27.983697-56.074407-35.956108-144.198976-35.956108-44.035531 0-140.186017-24.024245-140.186017 35.956108 0 16.051834 12.038876 20.011286 16.051834 40.022573zM1397.79372 111.988296v7.97241C1357.771147 175.981607 1385.861857 291.929355 1385.861857 371.920995c16.051834 20.011286 20.011286 11.985369 32.103668 39.969067 11.985369 20.011286 24.024245 20.011286 44.035531 32.103668l64.207336 8.025917V444.100742L1434.017359 423.928937v-40.022573l-16.051834 8.025917 4.012958-24.024245 28.09071-51.954436v16.051834h11.985369l-8.025917-56.020901v-28.037203H1466.121027c4.012959-11.985369 4.012959-11.985369 4.012958-27.983697V147.944404c0-27.983697-16.051834-51.954436-40.076079-51.954436-16.051834 0-24.024245 11.985369-32.103668 16.051834z" fill="#E54200" p-id="11443"></path><path d="M2042.6494 567.860382l-8.025917 12.038876h12.038875v7.972411l-40.129585 11.985369c12.038876 20.011286 52.061448 56.020901 52.061449 84.004599 0 99.94942-52.061448 115.947748-84.111611 167.95569l32.103668-16.051834 20.011287-27.983698c4.012959 4.012959 16.051834 16.051834 20.064792 16.051834a25.896959 25.896959 0 0 0 24.024245-20.011286c0-11.985369-4.012959-7.972411-8.025917-23.970739l-16.051834 11.98537c7.972411-24.024245 11.985369-8.025917 11.98537-27.983698v-32.103668l12.038875 7.972411v-64.207336l7.972411 32.103668h12.038876v-55.75337h8.025917l11.985369 27.983697H2134.947446v16.051834c0 23.970739-24.024245 4.012959-24.024245 52.007942 0 19.95778 12.038876 7.972411 12.038875 27.983698v23.970739l-32.103668 12.038875c-12.038876-32.103668-12.038876 16.051834-4.012958 27.983697 16.051834 39.969067-11.985369 35.956108-16.051834 16.051835h-16.051835l-16.051834 35.956108 16.051834 20.011286c120.174731-91.977009 60.087365-159.983279 96.311005-215.950674v-20.011286h-8.025917l-32.103668-87.964051c-28.037203-36.009614-56.074407-71.965723-100.109939-95.989967l4.012959 16.051834h-20.064793v11.985369h16.051834l11.771345 27.876685h24.077751zM1782.288652 203.965305h-28.037204c0-4.012959 4.012959-8.025917 12.038876-8.025917 20.011286 0 8.025917 0 32.103668 4.012958l-20.064793 40.022573-84.058104-4.012959v-8.025917h-48.155502c-20.011286 0-11.985369-11.985369-7.972411-27.983697 3.959452 4.012959 3.959452 4.012959 16.051834 4.012959l124.134183 11.985369z m-224.244122 64.207336l84.058104-8.025917c20.064793-4.012959 64.207336 4.012959 96.311005 4.012958 32.103668-20.011286 124.134183 20.011286 124.134183-32.103668v-16.051834c0-52.007942-148.158428-36.009614-208.245794-36.009614l-88.124569 4.012958c-32.103668 0-48.155502 52.007942-7.972411 84.004598zM572.568932 627.840736v12.038875l-28.037204 11.98537-4.012958-32.103668z m-80.259171 0c-8.025917 0-12.038876-7.972411-12.038875-16.051834v-27.983698c0-16.051834 8.025917-16.051834 20.064792-16.051834l7.972411 32.103668c0 8.025917-4.012959 27.983697-16.051834 27.983698z m-44.089037-299.634236l8.025917 11.98537A127.505068 127.505068 0 0 1 476.63247 411.997074l4.012959 64.207336-16.051834 175.981607 11.985369 23.970739c20.064793-3.959452 20.064793-7.972411 24.077751 16.051834l11.98537-11.985369 8.025917 20.011286c-4.012959 7.972411-24.024245 19.95778-24.024245 27.983698 0 16.051834 7.972411 20.011286 16.051834 20.011286v55.967395l24.024245-127.986624 36.06312 4.012959v-16.051834h11.98537v-27.983698l-11.98537-8.025917v-12.306406h11.98537v-27.983697l-40.022573 16.051834 11.771345-68.059776 24.077751-16.051834 64.207336-19.957781 24.024245 16.051834h12.038875l16.051834 3.959453 12.038876-23.970739-28.037204-4.012959c-20.011286 0-8.025917-7.972411-28.037203-7.972411H588.620766v7.972411l24.024245 4.012959c-16.051834 7.972411-11.985369 7.972411-24.024245 7.972411-4.012959 0-11.985369-7.972411-16.051834-11.98537h-19.797262l3.959452 24.024245h-11.985369l8.025917 19.957781-32.103668 12.038875v-8.025917l-28.037204-7.972411c0-20.011286-12.038876-24.024245-12.038875-48.155502V355.922667h-7.918905c0-32.103668 16.051834-36.009614-12.038876-43.982025v16.051834zM925.227726 867.815655c0 48.155502 0 115.947748 44.035531 115.947748h16.051834c20.011286 0 24.024245-7.972411 36.009615-16.051834l4.012958-23.970739c4.012959-11.985369 8.025917-16.051834 8.025917-27.983698v-4.012958c0-32.103668-28.037203-179.94106-44.035531-195.939388l3.959452 71.965723h-7.972411v-23.970739h-8.025917V823.994148h-8.025917v16.051834l20.064793-4.012959c-4.012959 7.972411 0 7.972411-16.051834 7.972411l-11.98537 4.012959-16.051834 20.011286v-24.238269h-16.051834v-107.975337l16.051834 4.012958v-64.207336h-8.025917l-11.985369 32.103668-4.012959-95.989967zM1469.919961 519.865399c-4.012959 4.012959-88.124569 36.009614-100.109938 36.009614-44.089038 0-116.161772-16.051834-116.161773 43.982025 0 32.103668 24.024245 40.022573 40.022573 48.155502 40.076079 0 168.223221-27.983697 188.234507-43.982025h-32.103668v-7.972411h-16.051834l24.024245-20.011286 4.012959-11.98537h24.024245v-28.037203l12.038875 4.012958 4.012959-7.97241 7.972411-12.038876-24.024245-3.959452zM1341.772819 811.84826h-24.077751c-20.011286 0-16.051834-4.012959-16.051834-20.011286h40.076079z m-64.207336 32.103668c11.985369 4.012959 11.985369 8.025917 28.037203 8.025917h16.051835c12.038876 0 140.186017-48.155502 156.237851-55.967395 48.155502-24.024245 88.071063-60.033859 132.1601-84.004598l4.012959-11.985369-36.063121 7.972411-24.024245 27.983697-12.038875 4.012959c-11.985369 0-11.985369-4.012959-16.051834-7.972411v16.051834c-12.038876 27.983697-72.126241 43.982025-96.311005 59.980353l-76.085693 4.012958v-24.024244c12.038876-4.012959 16.051834-4.012959 16.051834-16.051835v-16.051834l68.059776 16.051834v-23.970738H1450.069193v-8.025917h-12.038876V727.683143h24.024245v11.98537H1482.172861v-16.051834l20.064793 4.012958 20.011286-11.985369-24.024245-23.810221c-32.103668 16.051834-88.124569 40.022573-128.147142 48.155503-44.089038 16.051834-112.362838 8.025917-112.362838 64.207336 0 24.024245 11.985369 27.983697 20.011286 39.969067z" fill="#E54200" p-id="11444"></path><path d="M572.568932 679.848678l11.985369 20.011286-7.972411 55.967395v8.025917l7.972411 48.155502 32.103668 32.103668H636.776268V823.994148l32.103668 4.012958V807.942314c-4.012959-8.025917-11.985369-16.051834-11.985369-32.103668v-16.051834l11.985369-79.938134 16.051834-4.012958 80.25917-23.970739h-172.396697l-8.025917-16.051834v27.983697H572.568932zM1630.117265 823.994148l-8.025917 16.051834-24.024245 7.972411-16.051834-11.98537-16.051834 4.012959-104.122897 43.982025-11.771345 11.771345 16.051834 8.025917 36.06312-4.012958c-4.012959 32.103668-12.038876 11.985369 16.051835 27.983697 16.051834 11.985369 8.025917 20.011286 32.103668 24.024245l28.037203-8.025917 20.011287-16.051834c16.051834-23.970739 32.103668-11.985369 52.061448-36.009615 28.037203-23.970739 16.051834-19.95778 56.074407-32.103668l16.051834-3.959452 3.959452-43.982025-20.011286-12.038876V807.942314l-36.063121 20.011286v7.972411h8.025917c0 16.051834-8.025917 32.103668-24.024245 32.103668h-16.051834V856.097816h-16.051834v-12.306406h24.024245v-7.972411zM989.32805 583.85871c0-59.980353 3.959452-267.90511 24.024245-299.634235 24.024245-40.022573 28.037203-72.019229-12.038876-107.975337-36.06312-32.103668-40.022573-52.007942-104.122897-52.007942h-16.051834l40.022573 16.051834-40.022573 7.97241 3.959453 4.012959 24.024245-4.012959-7.972411 8.025918 20.011286 32.103668 4.012959-4.012959v-16.051834h16.051834c-4.012959 4.012959-4.012959 4.012959-4.012959 16.051834l4.012959 20.011287 12.038875 20.011286 48.155502 23.970739v23.970739l-24.024245-3.959453V331.737904h-20.118298v88.178075h20.011286zM360.524204 307.927683l-24.024245 27.983697-16.051834 4.012959c-20.011286 16.051834-32.103668 39.969067-32.103668 80.25917L252.388349 428.048908l-4.012959 12.038875c36.06312 3.959452 68.059776 59.980353 68.059776 91.97701 0 19.95778-4.012959 7.972411-4.012958 32.103668 8.025917-8.025917 8.025917-4.012959 8.025917-16.051834v-44.249556h28.037203l12.038876 32.103668 24.024245 4.012958c4.012959 27.983697 8.025917 20.011286 8.025917 40.022573 0 11.985369-8.025917 16.051834-12.038876 19.957781l-12.038875 32.103668c16.051834-11.985369 28.037203-23.970739 28.037203-48.155502 0-71.965723-24.024245-115.947748-52.061448-159.929774l-16.051834-12.038875c0-35.956108-12.038876-43.982025 20.011286-67.952764 16.051834-16.051834 56.074407-20.011286 52.061449-48.155503L396.533818 235.96196h-11.985369l-16.051834 64.207337h8.025917zM1525.994368 444.100742h48.155502l24.024245 8.025917 56.074407-32.103668-4.012959 16.051834-20.118298 24.077751 32.103668 12.038876L1674.152796 411.997074l16.051834-3.959453h-80.25917V395.94524h-64.207336c-32.103668 0-36.06312 20.011286-44.035532-7.972411l44.035532-4.012959-23.756715-4.066464 8.025917-7.972411-16.051834-8.025917-8.025917-7.972411-16.051834 4.012958-27.983697-28.197721H1450.069193v-16.051834l-28.037204 51.954436-4.066464 24.291775 16.051834-8.025917v40.022573zM440.622856 775.838646v32.103668h16.051834l-8.025917 39.969066-16.051834-19.95778v99.842408h16.051834v-27.983697c0-16.051834 8.025917-16.051834 20.064792-24.024245l4.012959 36.009614c28.037203-23.970739 16.051834-55.967395 16.051834-91.977009v-7.972411c0-20.011286 12.038876-12.038876 24.024245-8.025917v-55.967395c-8.025917 0-16.051834-4.012959-16.051834-20.011286 0-8.025917 20.011286-20.011286 24.024245-27.983698l-8.025917-20.011286-11.98537 11.985369c-4.012959-23.970739-4.012959-19.95778-24.077751-16.051834l-11.985369-23.970738z" fill="#E54200" p-id="11445"></path><path d="M1317.695068 947.807294l12.038876 7.972411 20.011286 16.051834v-7.972411l24.024245-16.051834 8.025917-27.983697h56.074407c4.012959 23.970739 12.038876 23.970739 12.038876 39.969067 0 7.972411-52.114955 52.007942-52.114955 52.007942h-16.051834v-32.103668c-11.985369 3.959452-16.051834 0-16.051834 16.051834l-4.012959 16.051834-52.061448-28.037203 24.024245 32.103668c40.022573 24.024245 196.260424-43.982025 216.271711-64.207336-24.024245-4.012959-16.051834-12.038876-32.103668-24.024245-28.037203-16.051834-20.011286 4.012959-16.051834-27.983698l-36.063121 4.012959-16.051834-8.025917c-40.076079 8.025917-124.187689 16.051834-132.213606 52.007942zM2014.612196 387.919323l-8.025917-32.103668 8.025917-23.970739-24.024245 3.959452 20.011287-67.952764c4.012959 7.972411 16.051834 16.051834 16.051834 27.983697v32.103669h16.051834V215.950674c-8.025917-4.012959-28.037203-23.970739-28.037204-27.983697 0-32.103668 20.011286-68.00627-20.064792-75.978681v51.954436h-11.98537v36.009614h11.98537v16.051834H1974.429105l-7.972411 16.051834c3.959452 11.985369 7.972411 16.051834 7.972411 32.103668v11.98537c0 24.024245-11.985369 16.051834-11.985369 52.007942l-12.038876 4.012959c56.074407 16.051834 28.037203 43.982025 64.207336 55.967394zM1710.215917 23.970739h40.022573v12.038875l-120.121225-8.025917c-16.051834 0-16.051834 8.025917-20.011287 16.051834h84.111611V64.207336h28.037203v16.051834h76.085694l80.25917 7.972411V64.207336h7.972411V43.982025h-7.972411V32.103668h-96.311004l-4.012959-4.012958 72.126241-4.012959V16.051834h-140.186017zM781.242774 279.943986l16.051834-4.012959 32.103668-16.051834v36.009615h-16.051834c-16.051834 0-20.011286 4.012959-36.06312 4.012958L765.19094 311.940642l4.012959 64.207336v32.103668l24.024245-16.051834L797.294608 411.997074l28.037204-35.956108 20.011286-32.103668c8.025917-16.051834 16.051834-32.103668 16.051834-52.007943v-23.970739c0-20.011286-16.051834-40.022573-32.103668-40.022573-24.024245 0-48.155502 24.024245-48.155502 52.007943zM1606.09302 619.868325l16.051834 7.972411-7.972411 32.103668c3.959452-7.972411 27.983697-23.970739 27.983697 0 0 12.038876-3.959452 12.038876-3.959452 24.024245l7.972411-4.012959 56.074407-36.009614v-11.98537l64.207336-43.982025 24.024245-23.970739-8.025917-8.025917-36.009614 27.983698-20.064793-27.983698 16.051834 8.025917v-12.038875h-8.025917v-12.092382l8.025917-7.972411zM2006.532773 835.818999l20.011287-4.012959 4.012958 11.98537 32.103668 4.012958L2054.688275 856.097816h16.051834c4.012959 19.95778 32.103668 23.970739 16.051834-16.051834-8.025917-11.985369-8.025917-59.980353 4.012959-27.983698l32.103668-12.038875V775.838646c0-20.011286-12.038876-8.025917-12.038875-27.983698 0-48.155502 24.024245-28.037203 24.024244-52.007942v-16.051834h-24.024244l-11.98537-27.983697h-8.025917v55.967394h-12.038875l-7.972411-32.103668v64.207336l-12.038876-7.972411v32.103669c0 19.95778-4.012959 3.959452-11.985369 27.983697l16.051834-11.98537c4.012959 16.051834 8.025917 11.985369 8.025917 23.970739a25.896959 25.896959 0 0 1-24.23827 20.011287c-4.012959 0-16.051834-11.985369-20.064792-16.051834z" fill="#E54200" p-id="11446"></path><path d="M1498.224695 691.834047l24.024245 24.024245-20.278817 11.824851 24.024245 20.011287v-16.051834c4.012959 3.959452 4.012959 7.972411 16.051834 7.972411l12.038876-4.012959 24.024245-27.983697 36.06312-7.972411 24.024245-16.051834c0-11.985369 3.959452-11.985369 3.959452-24.024245 0-23.970739-24.024245-7.972411-27.983697 0l7.972411-32.103668-16.051834-7.972411zM1485.918289 515.905946l24.024245 3.959453-7.972411 12.038875v7.972411h11.985369v11.98537l-24.024245 12.038875 8.025917 19.95778h-4.012958v16.051834c52.061448-27.983697 108.135855-51.954436 144.198976-99.94942l-24.024245-8.025917-24.077751 20.011287-24.024245-11.98537v19.957781c-60.087365 0-4.012959-43.982025 24.024245-48.155502v-16.051834h8.025917v-4.012959L1574.042858 444.100742c-44.035531 59.980353-72.072735 48.155502-88.124569 72.019229zM1802.353444 675.83572L1718.241834 743.734978c4.012959 0 11.985369-4.012959 16.051834-4.012959 20.011286 0 8.025917 4.012959 32.103668 4.012959v-32.103669h16.051834v-19.797262l52.061448 27.983698 4.012959 12.038875 76.085693-64.207336c0-24.024245-7.972411-40.022573-32.103668-40.022573s-60.087365 32.103668-80.25917 48.155502zM1317.695068 947.807294l-11.985369 4.012959 4.012958 32.103668 52.061449 28.037203 4.012958-16.051834c0-16.051834 4.012959-12.038876 16.051834-16.051834v32.103668h16.051834s52.114955-44.035531 52.114955-52.007942c0-16.051834-8.025917-16.051834-12.038876-39.969067h-56.181419l-8.025917 27.983698-24.024245 16.051834v7.972411l-20.011286-16.051834z" fill="#E54200" p-id="11447"></path><path d="M1525.994368 747.854948L1501.970123 727.683143l-20.064793-4.012958v16.051834h-20.011286V727.683143h-24.024245v11.98537H1450.069193v8.025917h-12.038876v23.970739l-68.059776-16.051834v16.051834c0 11.985369-4.012959 11.985369-16.051834 16.051834v24.024245l76.085693-4.012959c24.024245-16.051834 84.11161-32.103668 96.311005-59.980353zM604.6726 323.926011V331.737904c32.103668 39.969067 7.972411 39.969067 64.207336 71.965722 8.025917-8.025917 28.037203-24.024245 28.037203-40.022573L684.93177 307.927683l-16.051834-16.051834-48.155502-4.012958zM752.991546 787.824015l8.025917 31.996656-8.025917 11.985369-28.037203 15.998328 4.012958 8.025917 80.098652-4.012958h44.089038l-4.012959-47.994984-8.025917-27.983697h-28.037203l-60.087366 11.985369zM1718.241834 743.734978l16.051834 11.985369 4.012958 4.012958 4.012959 32.103669c0 16.051834-8.025917 16.051834-16.051834 20.011286l-3.959453 43.982025-16.051834 3.959453c40.076079 0 20.011286-3.959452 28.037204-32.103668 8.025917-16.051834 24.024245-20.011286 36.06312-28.037204 24.024245-19.95778 44.035531-43.982025 68.059777-59.980353v-7.972411l-4.012959-12.038876-52.061448-27.983697V711.631309h-16.051834v32.103669c-24.024245 0-12.038876-4.012959-32.103668-4.012959-4.012959 0-11.985369 4.012959-16.051834 4.012959z" fill="#E54200" p-id="11448"></path><path d="M752.991546 787.824015c-32.103668 0-52.061448 8.025917-52.061448 40.022573 0 51.954436 48.155502 35.956108 84.11161 32.103668 40.076079 0 96.311004 8.025917 96.311005-32.103668v-16.051834c0-28.037203-40.076079-52.007942-68.113283-36.009614h28.037204l8.025917 27.983697 4.012958 48.155502h-44.249556l-80.25917 4.012959-4.012958-8.025918 28.037203-16.051834 8.025917-11.985369zM336.499959 851.817327c3.959452 0 32.103668 20.011286 32.103668 20.011286 20.064793 0 32.103668-24.024245 32.103668-43.982025V807.942314c0-20.011286 0-36.009614-7.972411-48.155502l-8.025917 20.011286h-16.051834v55.967395l-24.024245 4.012958-4.012958-84.004598-20.011287 16.051834c0-32.103668-11.985369-36.009614 24.024245-27.983697l-16.051834-20.011287c-4.012959 4.012959-24.024245 20.011286-24.024245 24.024245a188.020483 188.020483 0 0 0 32.103668 103.962379z m-232.323545-695.579476H96.364522l-3.959453 7.972411L80.312688 187.966977 40.129596 307.927683l16.051834 40.022573a138.366809 138.366809 0 0 1 36.063121 23.970739c20.011286 16.051834 32.103668 36.009614 32.103668 52.007942 0 7.972411-16.051834 32.103668-20.011287 51.954436-8.025917 32.103668-16.051834 20.011286-32.103668 43.982026l20.064793-3.959453v7.972411h11.985369l-8.025917-16.051834h24.077751l3.959453 16.051834L112.416356 547.902602l11.985369 3.959453v48.155502l12.038876 11.985369h16.051834c-7.972411-12.145888-24.024245-24.131257-24.024245-40.129585 0-32.103668 28.037203-4.012959 28.037203-64.207336l36.063121-23.970739c24.024245-43.982025 4.012959-16.051834 40.022573-40.022573h8.025917l8.025917-3.959452 3.745428-11.664333 36.009614-7.972411c0-40.022573 12.038876-64.207336 32.103668-80.25917l16.051834-4.012959 24.024245-27.983697-24.024245-48.155502-20.064793 8.025917v-16.051834h-12.038875L280.425552 311.940642 252.388349 347.789738h-28.037204c-4.012959 3.959452-12.038876 11.985369-16.051834 11.985369-7.972411 0-36.009614-16.051834-52.061448-20.011286-7.972411-11.985369-20.011286-23.970739-20.011287-39.969067 0-36.009614 48.155502-107.975337 64.207336-136.012541l28.037204-11.985369 36.009614-11.985369h24.024245c12.038876-4.012959 24.024245-11.985369 24.024245-27.983698v-8.025917c0-19.95778-3.959452-19.95778-11.985369-27.983697l-28.144216-19.850768h-40.076079V48.155502l-44.035531 7.972411c-24.024245 0-80.25917 75.978681-84.111611 100.002926z m104.122897 687.553559v-7.972411c16.051834 0 44.089038 11.985369 44.089038 20.011286 0 16.051834-12.038876 16.051834-12.038876 48.155502 4.012959 27.983697 16.051834 27.983697-20.011286 27.983698V843.79141z m-24.024245 100.002926c12.038876 11.985369 20.011286 39.969067 36.063121 39.969067 52.061448 0 72.072735-223.923085 0-223.923085-20.011286 0-8.025917 4.012959-32.103669 4.012958 0 23.970739-16.051834 79.938134-16.051834 91.977009zM16.105351 887.826941l-3.959452 48.155502c0 11.985369 3.959452 7.972411 11.985369 27.983698H48.209019l-7.97241-32.103668 36.009614 11.985369c-8.025917-36.009614 4.012959-39.969067 28.037203-55.967395v-28.037203L80.312688 835.818999l-4.012959-87.964051C56.127924 763.853276 16.105351 840.045982 16.105351 887.826941z m60.087366-139.971993l4.119971 87.964051 24.024244 23.970739v28.037203l4.012959 7.972411c16.051834-20.011286 16.051834-87.964051 16.051834-131.946076 0-12.038876 0-4.012959-3.959452-20.011286-12.038876-4.012959-12.038876-4.012959-28.037204-4.012959s-8.025917 0-16.051834 8.025917z m32.103668 147.944404l-4.012959-7.972411c-24.024245 16.051834-36.06312 19.95778-28.037203 55.967395l-36.009614-11.98537 7.97241 32.103669H24.077762c-8.025917-20.011286-11.985369-16.051834-11.985369-27.983698l3.959452-48.155502a85.877312 85.877312 0 0 0-16.051834 48.155502v7.972411c0 23.970739 20.011286 39.969067 44.035532 39.969067 40.076079 0 44.089038-59.980353 64.207336-87.964051z m100.109938-52.007942h12.038876v88.017556c36.06312 0 24.024245 0 20.011286-27.983697 0-32.103668 12.038876-32.103668 12.038876-48.155502 0-8.025917-28.037203-20.011286-44.089038-20.011286zM1738.25312 959.792664c11.985369 43.982025 44.035531 64.207336 100.109939 64.207336 16.051834 0 24.024245-8.025917 32.103668-11.985369h-64.207337v-20.011287h-24.024245v-32.103668c0-20.011286-48.155502-43.982025-60.033859-39.969067l3.959453-36.009614h12.038875v27.983697l44.035531-16.051834c-11.985369-11.985369-24.024245-23.970739-44.035531-23.970739-12.038876 0-20.011286 7.972411-20.011286 23.970739v16.051834c0 20.011286 11.985369 32.103668 20.011286 48.155502zM444.635814 959.792664c-24.077751 0-48.155502-7.972411-48.155502-27.983698v-16.051834l24.024245 16.051834 4.012959-27.983697c0-16.051834 0-8.025917 8.025917-16.051834v-59.926847l16.051834 19.95778 8.025917-39.969067h-16.051834v-32.103668c-16.051834 23.970739-16.051834 48.155502-32.103668 71.965723s-32.103668 36.009614-32.103669 72.019229c0 23.970739 16.051834 35.956108 32.103669 43.982025zM1974.429105 599.857038h32.103668l40.076079-11.985369v-7.972411h-12.038875l8.025917-12.038876v-16.051834l-48.155502 8.025917-11.98537-16.051834-4.012958-36.009614H1958.377271c-4.012959 11.985369-8.025917 11.985369-8.025917 27.983697v52.007943l-11.985369-16.051834-4.012959 24.024245zM1630.117265 823.994148l16.051834 11.985369v7.972411h-24.024245V856.097816h16.051834v11.985369h16.051834c16.051834 0 24.024245-16.051834 24.024245-32.103668h-8.025917v-7.972411l36.06312-20.011286v-8.025917l20.011287 12.038875c8.025917-4.012959 16.051834-4.012959 16.051834-20.011286l-4.012959-32.103668-4.012958-4.012959-32.103668 27.983698-32.103668-3.959453v7.972411l-32.103668 16.051834z" fill="#E54200" p-id="11449"></path><path d="M296.42388 199.952346l-24.024245 4.012959c0 7.972411-8.025917 20.011286-8.025917 27.983697 0 4.012959 8.025917 11.985369 8.025917 16.051834 12.038876 4.012959 16.051834 0 16.051834 16.051834a23.54269 23.54269 0 0 1-7.972411 20.011287L224.351145 347.789738h28.037204l28.037203-35.849096 24.024245-59.980354-8.025917-32.103668 24.024245-4.012958c-16.051834 36.009614 0 32.103668 24.024245 32.103668V235.96196l-20.011287-8.025917 32.103668-23.970738v7.972411l28.037204 24.024244h11.931863c-16.051834-24.024245-48.155502-40.022573-92.084021-40.022572z" fill="#E34200" p-id="11450"></path><path d="M312.422208 563.90093c0 43.982025 4.012959 23.970739 32.103668 23.970739h8.025917c20.011286 0 20.011286 4.012959 28.037203 11.985369 4.012959-3.959452 12.038876-7.972411 12.038876-19.95778 0-20.011286-4.012959-12.038876-8.025917-40.022573l-24.024245-4.012958-12.038876-32.103668h-28.090709v44.035531c0 11.985369 0 7.972411-8.025917 16.051834zM432.596939 887.826941c-8.025917 7.972411-8.025917 0-8.025917 16.051834l-4.012959 27.983698-24.024245-16.051834v16.051834c0 20.011286 24.024245 27.983697 48.155502 27.983697l48.155503-55.967395v-16.051834l20.011286-84.004598c-11.985369-4.012959-24.024245-11.985369-24.024245 8.025917v7.972411c0 36.009614 12.038876 68.00627-16.051834 91.977009l-4.012959-36.009614c-12.038876 8.025917-20.064793 8.025917-20.064792 24.024245v27.983697h-16.051834zM392.574366 759.786812l-8.025917-11.98537h-8.025917l-8.025917-16.051834-3.959453-8.025917-36.06312-7.972411v7.972411l16.051834 20.011287c-36.009614-8.025917-24.024245-4.012959-24.024245 27.983697l20.011286-16.051834 4.012959 84.004598 24.024245-4.012958v-55.806877h16.051834zM304.449797 251.960288h11.985369v16.051834l20.064793-8.025917 24.024245 48.155503 16.051834-7.972411h-8.025917l16.051834-64.207337-28.037204-24.024244v-7.972411l-32.103668 23.970738 20.011287 8.025917v11.98537c-24.024245 0-40.022573 4.012959-24.024245-32.103668l-24.024245 4.012958zM1754.251448 203.965305h28.037204l-4.012959 11.985369-124.134183-11.985369c-12.038876 0-12.038876 0-16.051834-4.012959-4.012959 16.051834-12.038876 27.983697 7.972411 27.983697h48.155502v8.025917l84.058104 4.012959 20.064793-40.022573c-24.024245-4.012959-12.038876-4.012959-32.103668-4.012958-8.025917 0-12.038876 4.012959-12.038876 8.025917zM2014.612196 387.919323c28.037203-24.024245 48.155502-135.959034 28.037204-171.968649v111.988296h-16.051834v-32.103669c0-11.985369-11.985369-20.011286-16.051834-27.983697L1990.480939 335.91138l24.024245-3.959452-7.972411 23.970739zM1694.217589 755.827359l-128.200648 84.004598 16.051834-4.012958 15.998328 11.985369 24.024245-7.972411 8.025917-15.998328 8.025917-20.011286 31.996656-15.998328v-7.972411l32.050162 3.959453 32.050162-27.983698-15.998328-11.985369-24.024245 11.985369zM813.346442 651.864981c8.025917 7.972411 8.025917 11.985369 28.037204 11.985369h16.051834c24.077751 0 40.076079-11.985369 40.076079-36.009614v-11.98537c0-11.985369-12.038876-19.95778-20.011287-32.103668h-16.051834l-4.012958 20.011287 8.025917 4.012958 8.025917 23.970739zM1850.401934 1011.800606h20.011287l60.087365-15.998328-28.037204-4.012958-15.998327-4.012959 44.035531-15.998328-48.04849-15.998328v12.038876h-32.050162v43.982025zM1614.118937 491.881701l7.972411-23.970739-24.024245 4.012959v-16.051834h-8.025917v16.051834c-28.037203 3.959452-84.11161 48.155502-24.024245 48.155502v-20.171805l24.024245 11.98537zM769.04338 631.853694l-4.012958-27.983697h11.985369l-32.050162-4.012959v-11.985369h-24.024245v-31.996656h-7.972411l-8.025917 27.983697-11.985369 4.012959 3.959452 15.998328 36.063121 8.025917v19.95778l-15.998328 4.012959 52.061448-4.012959z" fill="#E54200" p-id="11451"></path><path d="M1461.894044 331.737904l28.037203 27.983697 16.051835-4.012959 8.025917 7.972411 68.113282-3.959452C1493.944206 359.935625 1466.121027 331.737904 1466.121027 247.94733h-12.038876v27.983697z" fill="#E24200" p-id="11452"></path><path d="M1598.067103 451.912635V471.870415l24.024245-3.959453-8.025917 23.970739 24.077751 8.025917 24.024245-28.037203-32.050162-11.98537 20.011286-23.970738 4.012959-15.998328-56.074407 31.996656zM604.6726 323.926011l16.051834-36.009614 48.155502 4.012958 16.051834 16.051834c0-23.970739-12.038876-48.155502-32.103668-48.155502h-20.011287c-16.051834 0-20.064793 11.985369-28.037203 20.011287zM1481.90533 603.869997l12.038876-4.012959v-15.998328h4.012958l-8.025917-19.95778 24.024245-12.038875v-11.98537h-11.985369v-7.972411l-4.012959 7.972411-12.038875-4.012958v28.037203h-24.024245l-4.012959 11.98537-24.024244 19.95778h16.051834v8.025917h31.996655zM492.684304 627.840736c11.985369 0 16.051834-19.95778 16.051834-27.983698l-7.972411-32.103668c-12.038876 0-20.064793 0-20.064792 16.051834v27.983698c0 8.025917 4.012959 16.051834 12.038875 16.051834zM781.242774 279.943986l-4.012958 20.011286c16.051834 0 20.064793-4.012959 36.06312-4.012958h16.051834v-36.009615l-32.103668 16.051834z" fill="#E54200" p-id="11453"></path><path d="M616.818488 843.79141c4.012959 8.025917 8.025917 12.038876 20.064792 12.038875 20.011286 0 24.024245-4.012959 32.103668-16.051834l12.038876-20.011286L668.879936 807.942314v20.011286l-32.103668-4.012958v19.95778z" fill="#E24200" p-id="11454"></path><path d="M1317.695068 811.84826h24.077751V791.89048h-40.076079c0 16.051834-4.012959 20.011286 16.051834 20.011286zM572.782956 627.840736l-32.050162-7.972411 4.012959 31.996656 28.037203-11.98537v-12.038875z" fill="#E54200" p-id="11455"></path><path d="M384.548449 747.854948l-8.025917-24.024245h-11.98537l3.959453 8.025917 8.025917 15.998328h8.025917z" fill="#D3441C" p-id="11456"></path></svg>